<svg xmlns="http://www.w3.org/2000/svg" viewBox="0 0 24 24" fill="#4CAF50" width="60" height="60">
  <path d="M21.82 15.42L19.32 19.75C18.83 20.61 17.92 21.06 17 21H15V23L12.5 20.5L15 18V20H17C17.41 20 17.8 19.8 18 19.38L20.5 15.05L21.82 15.42M13 18.03V16.03C10.37 15.94 8 14.46 8 12.03H5C5 13.26 5.38 14.43 6 15.46L4.25 17.21C3.56 16.05 3.07 14.71 3 13.28L1 13.25C1 14.84 1.37 16.36 2.07 17.69L0.65 19.11L2.06 20.5L3.5 19.07C4.6 20.11 5.93 20.9 7.4 21.41L6.8 23.32L8.92 23.94L9.61 21.96C10.57 22.01 11.53 21.89 12.46 21.61L12 20C11.17 20.17 10.31 20.24 9.46 20.17L10.46 17.38C11.5 17.81 12.79 18.04 14 18.03M15 3C12.79 3 10.89 4.27 10.23 6.1L8.08 5.27C8.97 2.89 11.77 1 15 1S21.03 2.89 21.92 5.27L19.77 6.11C19.12 4.28 17.22 3 15 3M5.65 4.63C7.46 3.34 9.57 2.37 12 2.05V4.07C9.91 4.33 8.21 5.17 6.75 6.22L5.65 4.63Z" />
</svg>

// filepath: d:\Cours\Le_Recyclotron_front\src\assets\icons\community.svg
<svg xmlns="http://www.w3.org/2000/svg" viewBox="0 0 24 24" fill="#4CAF50" width="60" height="60">
  <path d="M12,5.5A3.5,3.5 0 0,1 15.5,9A3.5,3.5 0 0,1 12,12.5A3.5,3.5 0 0,1 8.5,9A3.5,3.5 0 0,1 12,5.5M5,8C5.56,8 6.08,8.15 6.53,8.42C6.38,9.85 6.8,11.27 7.66,12.38C7.16,13.34 6.16,14 5,14A3,3 0 0,1 2,11A3,3 0 0,1 5,8M19,8A3,3 0 0,1 22,11A3,3 0 0,1 19,14C17.84,14 16.84,13.34 16.34,12.38C17.2,11.27 17.62,9.85 17.47,8.42C17.92,8.15 18.44,8 19,8M5.5,18.25C5.5,16.18 8.41,14.5 12,14.5C15.59,14.5 18.5,16.18 18.5,18.25V20H5.5V18.25M0,20V18.5C0,17.11 1.89,15.94 4.45,15.6C3.86,16.28 3.5,17.22 3.5,18.25V20H0M24,20H20.5V18.25C20.5,17.22 20.14,16.28 19.55,15.6C22.11,15.94 24,17.11 24,18.5V20Z" />
</svg>

// filepath: d:\Cours\Le_Recyclotron_front\src\assets\icons\shop.svg
<svg xmlns="http://www.w3.org/2000/svg" viewBox="0 0 24 24" fill="#4CAF50" width="60" height="60">
  <path d="M12 18C12 18.55 12.45 19 13 19H19C19.55 19 20 18.55 20 18V13C20 12.45 19.55 12 19 12H13C12.45 12 12 12.45 12 13V18M14 14H18V17H14V14M6 17H9V15H6V12H9V14H11V11C11 10.45 10.55 10 10 10H5C4.45 10 4 10.45 4 11V16C4 16.55 4.45 17 5 17H6M22 8V21C22 21.55 21.55 22 21 22H3C2.45 22 2 21.55 2 21V8H22M4 2H20V6H4V2Z" />
</svg>
